# xmcd
#
# Track frame offsets:
#	150
#	19979
#	39353
#	65073
#	81815
#	98673
#	116089
#	129358
#	148259
#	164913
#	179010
#
# Disc length: 2601 seconds
# Revision: 4
# Processed by: cddbd v1.5.2PL0 Copyright (c) Steve Scherf et al.
# Submitted via: dBpowerAMP V12.0
#
DISCID=a10a270b
DTITLE=陳秀雯 - 陳秀雯_震盪_復黑王
DYEAR=1984
DGENRE=Pop
TTITLE0=親親我
TTITLE1=最後一班車
TTITLE2=震盪(club mix)
TTITLE3=急凍愛情
TTITLE4=圖畫日記
TTITLE5=震盪
TTITLE6=不可再等
TTITLE7=雨中花
TTITLE8=神燈
TTITLE9=再不想躲開
TTITLE10=書中故事
EXTD=
EXTT0=
EXTT1=
EXTT2=
EXTT3=
EXTT4=
EXTT5=
EXTT6=
EXTT7=
EXTT8=
EXTT9=
EXTT10=
PLAYORDER=
